Animen Triton Force [2010] R5 DVDRip XviD HQ DAYN-DAYN DOT ORG

Info:

[quote]
Format                           : AVI
Format/Info                      : Audio Video Interleave
File size                        : 826 MiB
Duration                         : 1h 32mn
Overall bit rate                 : 1 244 Kbps
Writing application              : Lavf52.39.1

Video
ID                               : 0
Format                           : MPEG-4 Visual
Format settings, BVOP            : 1
Format settings, QPel            : No
Format settings, GMC             : No warppoints
Format settings, Matrix          : Default (H.263)
Muxing mode                      : Packed bitstream
Codec ID                         : DX50
Codec ID/Hint                    : DivX 5
Duration                         : 1h 32mn
Bit rate                         : 1 104 Kbps
Width                            : 688 pixels
Height                           : 266 pixels
Display aspect ratio             : 2.586
Frame rate                       : 25.000 fps
Color space                      : YUV
Chroma subsampling               : 4:2:0
Bit depth                        : 8 bits
Scan type                        : Progressive
Compression mode                 : Lossy
Bits/(Pixel*Frame)               : 0.241
Stream size                      : 733 MiB (89%)
Writing library                  : DivX 6.8.5 (UTC 2009-08-20)

Audio
ID                               : 1
Format                           : MPEG Audio
Format version                   : Version 1
Format profile                   : Layer 2
Codec ID                         : 50
Duration                         : 1h 32mn
Bit rate mode                    : Constant
Bit rate                         : 128 Kbps
Channel(s)                       : 2 channels
Sampling rate                    : 48.0 KHz
Compression mode                 : Lossy
Stream size                      : 85.0 MiB (10%)
Alignment                        : Aligned on interleaves
Interleave, duration             : 24 ms (0.60 video frame)
